<svg id="Layer_1" data-name="Layer 1" xmlns="http://www.w3.org/2000/svg" viewBox="0 0 114 114"><defs><style>.cls-1{fill:#7e57ff;}.cls-2{fill:#fe5d7a;}.cls-3{fill:#4bcffa;}</style></defs><title>icon-timeline</title><path class="cls-1" d="M107.5,53.5h-68a7,7,0,0,1-7-7V8.5a7,7,0,0,1,7-7h68a7,7,0,0,1,7,7v38A7,7,0,0,1,107.5,53.5Zm-67-8h66V9.5h-66Z"/><rect class="cls-2" x="48" y="15.5" width="24" height="24"/><rect class="cls-3" x="78.5" y="19.5" width="21" height="7"/><rect class="cls-3" x="78.5" y="31.5" width="21" height="7"/><path class="cls-1" d="M107.5,113.5h-68a7,7,0,0,1-7-7v-38a7,7,0,0,1,7-7h68a7,7,0,0,1,7,7v38A7,7,0,0,1,107.5,113.5Zm-67-8h66v-36h-66Z"/><rect class="cls-2" x="48" y="75.5" width="24" height="24"/><rect class="cls-3" x="78.5" y="79.5" width="21" height="7"/><rect class="cls-3" x="78.5" y="91.5" width="21" height="7"/><rect class="cls-3" x="8" y="1.5" width="8" height="111"/><circle class="cls-2" cx="11.5" cy="26" r="8"/><circle class="cls-2" cx="11.5" cy="86" r="8"/></svg>