<svg id="Layer_1" data-name="Layer 1" xmlns="http://www.w3.org/2000/svg" viewBox="0 0 114 114"><defs><style>.cls-1{fill:#f3f7fb;}.cls-2{fill:#7e57ff;}.cls-3{fill:#fe5d7a;}.cls-4{fill:#4bcffa;}</style></defs><title>icon-organized</title><rect class="cls-1" x="0.5" y="10.74" width="24" height="24"/><rect class="cls-1" x="40.5" y="26.74" width="41" height="38.52"/><rect class="cls-1" x="72.5" y="64.74" width="41" height="38.52"/><path class="cls-2" d="M93.5,55h-72a6,6,0,0,1-6-6V22a6,6,0,0,1,6-6h72a6,6,0,0,1,6,6V49A6,6,0,0,1,93.5,55Zm-72-33V49h72V22Z"/><rect class="cls-3" x="27.5" y="26.99" width="17" height="17"/><rect class="cls-4" x="50.5" y="29.99" width="37" height="5"/><rect class="cls-4" x="50.5" y="37.99" width="25" height="5"/><path class="cls-2" d="M93.5,99.49h-72a6,6,0,0,1-6-6v-27a6,6,0,0,1,6-6h72a6,6,0,0,1,6,6v27A6,6,0,0,1,93.5,99.49Zm-72-33v27h72v-27Z"/><rect class="cls-3" x="27.5" y="71.49" width="17" height="17"/><rect class="cls-4" x="50.5" y="74.49" width="37" height="5"/><rect class="cls-4" x="50.5" y="82.49" width="25" height="5"/></svg>