<svg id="Layer_1" data-name="Layer 1" xmlns="http://www.w3.org/2000/svg" viewBox="0 0 114 114"><defs><style>.cls-1{fill:#f4f8fc;}.cls-2{fill:#4bcffa;}.cls-3{fill:#7e57ff;}.cls-4{fill:#fe5d7a;}</style></defs><title>icon-complete</title><circle class="cls-1" cx="57" cy="57" r="56.5"/><path class="cls-2" d="M49.81,84.35a3,3,0,0,1-2.89-2.19L33.41,34.34A10.41,10.41,0,0,1,43.46,21h7.16a3,3,0,1,1,0,6H43.46a4.64,4.64,0,0,0-2.34.63,4.57,4.57,0,0,0-1.92,5.13L52.7,80.53a3,3,0,0,1-2.07,3.71A3.36,3.36,0,0,1,49.81,84.35Z"/><path class="cls-2" d="M50.81,89a3,3,0,0,1-2.54-1.4L25.74,51.71a8.88,8.88,0,0,1-1-7.21,8.56,8.56,0,0,1,4.48-5.34l.14-.06A12.18,12.18,0,0,1,34.46,38H36a3,3,0,0,1,0,6H34.46a6.21,6.21,0,0,0-2.6.55,2.54,2.54,0,0,0-1.37,1.62,2.9,2.9,0,0,0,.33,2.35L53.35,84.4A3,3,0,0,1,50.81,89Z"/><path class="cls-3" d="M107.52,92H53.72a6.06,6.06,0,0,1-6.1-6V14a6.06,6.06,0,0,1,6.1-6h36.9a3,3,0,0,1,0,6H53.72a.14.14,0,0,0-.11,0V86s0,0,.1,0h53.8a.14.14,0,0,0,.11,0V34a3,3,0,0,1,6,0V86A6.05,6.05,0,0,1,107.52,92Z"/><path class="cls-3" d="M110.62,31v3H95.39a7.77,7.77,0,0,1-7.58-8V11h4Z"/><path class="cls-3" d="M110.62,37H95.39A10.79,10.79,0,0,1,84.81,26V11a3,3,0,0,1,3-3h4A3,3,0,0,1,94,8.94l18.82,20a3,3,0,0,1,.81,2.06v3A3,3,0,0,1,110.62,37ZM90.81,14.32V26a4.79,4.79,0,0,0,4.58,5H106.5Z"/><rect class="cls-4" x="63" y="50" width="35" height="6"/><rect class="cls-4" x="63.25" y="61.5" width="35" height="6"/><rect class="cls-4" x="63.25" y="73" width="35" height="6"/></svg>