<svg id="Layer_1" data-name="Layer 1" xmlns="http://www.w3.org/2000/svg" viewBox="0 0 114 114"><defs><style>.cls-1{fill:#7e57ff;}.cls-2{fill:#fe5d7a;}.cls-3{fill:#4bcffa;}</style></defs><title>icon-clock</title><polygon class="cls-1" points="81.23 85.88 53 58.7 53 19 61 19 61 55.3 86.77 80.12 81.23 85.88"/><path class="cls-1" d="M89.82,83.16a40.38,40.38,0,0,1-5.56,5.76Z"/><path class="cls-1" d="M29.74,88.92a40.38,40.38,0,0,1-5.56-5.76Z"/><path class="cls-1" d="M95.7,17.22A55.5,55.5,0,0,0,17.22,95.7,55.5,55.5,0,0,0,112.5,57,55.1,55.1,0,0,0,95.7,17.22Zm-2,69.87-3.93-3.93a40.38,40.38,0,0,1-5.56,5.76l3.91,3.91A46.88,46.88,0,0,1,61,104.33V99H53v5.33a46.88,46.88,0,0,1-27.17-11.5l3.91-3.91a40.38,40.38,0,0,1-5.56-5.76l-3.93,3.93A47,47,0,0,1,9.67,61H15V53H9.67a46.86,46.86,0,0,1,11.5-27.17l3.91,3.91a40.38,40.38,0,0,1,5.76-5.56l-3.93-3.93A47,47,0,0,1,53,9.67V15h8V9.67A47.11,47.11,0,0,1,87.09,20.25l-3.93,3.93a40.38,40.38,0,0,1,5.76,5.56l3.91-3.91A46.86,46.86,0,0,1,104.33,53H99v8h5.33A47,47,0,0,1,93.75,87.09Z"/><path class="cls-1" d="M24.18,83.16a40.38,40.38,0,0,0,5.56,5.76Zm60.08,5.76a40.38,40.38,0,0,0,5.56-5.76Z"/><circle class="cls-2" cx="57" cy="57" r="9"/><path class="cls-3" d="M46,37.38v8.7a15,15,0,0,0-2,2.5A15.37,15.37,0,0,0,41.5,57a14.71,14.71,0,0,0,.21,2.5H34.65A20.72,20.72,0,0,1,34.5,57,22.42,22.42,0,0,1,44,38.66,18.31,18.31,0,0,1,46,37.38Z"/><path class="cls-3" d="M46,23.77v7.48c-.68.29-1.35.61-2,1A28,28,0,0,0,29,57c0,.84,0,1.68.11,2.5h-7C22,58.67,22,57.84,22,57A35.06,35.06,0,0,1,44,24.5C44.65,24.24,45.32,24,46,23.77Z"/></svg>