<svg id="Layer_1" data-name="Layer 1" xmlns="http://www.w3.org/2000/svg" viewBox="0 0 114 114"><defs><style>.cls-1{fill:#f4f8fc;}.cls-2{fill:#7e57ff;}.cls-3{fill:#4bcffa;}.cls-4{fill:#fe5d7a;}</style></defs><title>icon-yours</title><rect class="cls-1" y="65" width="41" height="48"/><rect class="cls-1" x="82" y="18" width="32" height="30"/><circle class="cls-2" cx="47" cy="44" r="15.5"/><path class="cls-2" d="M79,101H73V98a26,26,0,0,0-52,0v3H15V98a32,32,0,0,1,64,0Z"/><path class="cls-3" d="M83.7,38.5a3,3,0,0,1-2.82-2,35,35,0,0,0-65.76,0,3,3,0,1,1-5.64-2,41,41,0,0,1,77,0,3,3,0,0,1-1.79,3.84A3.1,3.1,0,0,1,83.7,38.5Z"/><circle class="cls-4" cx="10.5" cy="42" r="9.5"/><circle class="cls-4" cx="83.5" cy="42" r="9.5"/><circle class="cls-4" cx="47" cy="11" r="9.5"/></svg>