<svg id="Layer_1" data-name="Layer 1" xmlns="http://www.w3.org/2000/svg" viewBox="0 0 114 114"><defs><style>.cls-1{fill:#7e57ff;}.cls-2{fill:#fe5d7a;}.cls-3{fill:#fff;}.cls-4{fill:#4bcffa;}</style></defs><title>icon-work</title><path class="cls-1" d="M61.25,105.2h-51a10,10,0,0,1-10-10V18.8a10,10,0,0,1,10-10h51a10,10,0,0,1,10,10V95.2A10,10,0,0,1,61.25,105.2Zm-51-88.4a2,2,0,0,0-2,2V95.2a2,2,0,0,0,2,2h51a2,2,0,0,0,2-2V18.8a2,2,0,0,0-2-2Z"/><rect class="cls-2" x="14.75" y="23.5" width="23" height="20"/><rect class="cls-1" x="41.75" y="24" width="15" height="7"/><rect class="cls-2" x="14.75" y="58.5" width="41" height="7"/><rect class="cls-2" x="14.75" y="71" width="41" height="7"/><rect class="cls-2" x="14.75" y="83.5" width="41" height="7"/><rect class="cls-3" x="50.75" y="40.5" width="59" height="60" rx="3"/><path class="cls-4" d="M106.75,104.5h-53a7,7,0,0,1-7-7v-54a7,7,0,0,1,7-7h53a7,7,0,0,1,7,7v54A7,7,0,0,1,106.75,104.5Zm-52-8h51v-52h-51Z"/><path class="cls-1" d="M76.3,70,82,75.7a3,3,0,0,0,4.24,0l4.24-4.24a3,3,0,0,1,4.25,0l6.71,6.71a3,3,0,0,1,0,4.25L92.92,90.9a3,3,0,0,1-4.25,0L61.1,63.33a3,3,0,0,1,0-4.25l8.48-8.48a3,3,0,0,1,4.25,0l6.71,6.71a3,3,0,0,1,0,4.25L76.3,65.8A3,3,0,0,0,76.3,70Z"/></svg>